<svg width="100" height="100" viewBox="0 0 100 100" fill="none" xmlns="http://www.w3.org/2000/svg">
<path d="M93.32 57.72L93.2 43.09C93.1997 42.9478 93.1795 42.8065 93.14 42.67C88.91 27.47 70.85 17.18 56.53 16.38C55.3094 16.2627 54.0777 16.3917 52.908 16.7593C51.7382 17.1269 50.6541 17.7256 49.72 18.52L49.07 18.45C48.98 17.28 48.91 14.06 50.6 11.82C51.1203 11.1545 51.7727 10.6039 52.5162 10.2029C53.2597 9.80191 54.0781 9.55917 54.92 9.48997C55.3178 9.43692 55.6783 9.22802 55.9221 8.9092C56.1659 8.59039 56.273 8.18779 56.22 7.78997C56.167 7.39214 55.9581 7.03168 55.6392 6.78788C55.3204 6.54409 54.9178 6.43692 54.52 6.48997C53.2821 6.60989 52.0821 6.98342 50.9947 7.58729C49.9074 8.19116 48.9561 9.01244 48.2 9.99997C45.92 13 45.96 17.06 46.08 18.64C43.8832 19.1388 41.9128 20.3495 40.4751 22.0838C39.0374 23.8181 38.2129 25.9788 38.13 28.23C30.56 34.6 21.63 42 12.36 49.39C7.8 53 6.74 56.75 6.53 61.59C6.53 62.5 6.53 65.77 6.53 69.82C6.53 69.82 6.53 69.82 6.53 69.88C6.53 71.42 6.53 73.08 6.53 74.77C6.53 75.85 6.53 76.97 6.53 78.07C6.48458 78.2809 6.48458 78.499 6.53 78.71C6.5252 78.7899 6.5252 78.87 6.53 78.95C6.53 83.5 6.59 87.63 6.53 88.39C6.41448 89.1033 6.46149 89.8335 6.66754 90.5261C6.87359 91.2187 7.23335 91.8558 7.72 92.39C8.63154 93.1702 9.81289 93.5616 11.01 93.48C11.5116 93.4775 12.0125 93.4441 12.51 93.38C21.39 92.31 30.43 91.33 39.18 90.38L55.41 88.6C66.06 87.43 77.07 86.21 87.91 85.12C89.1542 85.077 90.352 84.6376 91.3289 83.8659C92.3057 83.0941 93.0103 82.0304 93.34 80.83C93.3997 80.6666 93.4302 80.4939 93.43 80.32L93.32 57.72ZM48.32 21.42C48.7158 21.4214 49.1107 21.4582 49.5 21.53C49.6899 21.61 49.894 21.6508 50.1 21.65C51.8706 22.1089 53.3996 23.2254 54.3759 24.7722C55.3522 26.3189 55.7023 28.1796 55.355 29.9754C55.0076 31.7712 53.9889 33.3671 52.5062 34.4382C51.0236 35.5093 49.1884 35.975 47.3744 35.7406C45.5604 35.5062 43.904 34.5893 42.7422 33.1765C41.5805 31.7637 41.0009 29.9613 41.1214 28.1362C41.2419 26.3111 42.0535 24.6005 43.3909 23.3528C44.7283 22.105 46.4909 21.4138 48.32 21.42ZM14.22 51.75C22.93 44.82 31.34 37.85 38.6 31.75C39.1121 33.3244 39.9998 34.7505 41.1864 35.9051C42.373 37.0597 43.8228 37.9081 45.4107 38.3771C46.9985 38.846 48.6766 38.9214 50.3001 38.5967C51.9236 38.272 53.4436 37.557 54.729 36.5134C56.0143 35.4699 57.0263 34.1291 57.6775 32.6069C58.3288 31.0848 58.5997 29.4269 58.4669 27.7766C58.3341 26.1263 57.8015 24.5332 56.9153 23.1347C56.029 21.7363 54.8157 20.5746 53.38 19.75C54.3363 19.3885 55.3612 19.245 56.38 19.33C72.61 20.25 85.9 31.42 89.76 41.84C84.41 42.72 67.12 45.5 50.32 48.21C29.56 51.55 16.91 53.59 11.55 54.47C12.303 53.4383 13.2024 52.5219 14.22 51.75ZM9.52 61.75C9.54505 60.4171 9.70588 59.0902 10 57.79L50.73 51.21C72.87 47.65 85.73 45.58 90.18 44.84L90.27 56.41L9.51 68.11C9.49 65 9.49 62.44 9.52 61.73V61.75ZM9.52 71.16L90.32 59.46V65.08L9.57 76.76C9.57 76.11 9.57 75.44 9.57 74.76C9.55 73.54 9.54 72.32 9.53 71.14L9.52 71.16ZM87.67 82.16C76.82 83.26 65.8 84.47 55.14 85.65L38.92 87.41C30.17 88.41 21.12 89.35 12.22 90.41C10.54 90.61 10.01 90.41 9.85 90.22C9.5677 89.7191 9.47539 89.1333 9.59 88.57C9.64 87.8 9.59 84.64 9.59 79.78L90.39 68.08L90.49 80.08C90.3217 80.6894 89.9527 81.2242 89.4428 81.598C88.9329 81.9719 88.3118 82.1628 87.68 82.14L87.67 82.16Z" fill="url(#paint0_linear_54236_35305)"/>
<defs>
<linearGradient id="paint0_linear_54236_35305" x1="6.46826" y1="49.9836" x2="93.43" y2="49.9836" gradientUnits="userSpaceOnUse">
<stop stop-color="#275E44"/>
<stop offset="0.0666667" stop-color="#275F45"/>
<stop offset="0.133333" stop-color="#296146"/>
<stop offset="0.2" stop-color="#2B654A"/>
<stop offset="0.266667" stop-color="#2D6B4E"/>
<stop offset="0.333333" stop-color="#317354"/>
<stop offset="0.4" stop-color="#357C5B"/>
<stop offset="0.466667" stop-color="#3A8562"/>
<stop offset="0.533333" stop-color="#3F906A"/>
<stop offset="0.6" stop-color="#449971"/>
<stop offset="0.666667" stop-color="#48A278"/>
<stop offset="0.733333" stop-color="#4CAA7E"/>
<stop offset="0.8" stop-color="#4EB082"/>
<stop offset="0.866667" stop-color="#50B486"/>
<stop offset="0.933333" stop-color="#52B687"/>
<stop offset="1" stop-color="#52B788"/>
</linearGradient>
</defs>
</svg>
