<svg width="100" height="100" viewBox="0 0 100 100" fill="none" xmlns="http://www.w3.org/2000/svg">
<path d="M80.4998 29.64C80.4918 29.4512 80.4512 29.2651 80.3798 29.09C80.3031 28.9066 80.191 28.7401 80.0498 28.6L68.6998 17.6V9.00004C68.6972 8.40647 68.5777 7.81922 68.3481 7.27183C68.1185 6.72444 67.7834 6.22763 67.3618 5.80977C66.9402 5.3919 66.4404 5.06117 65.891 4.83644C65.3416 4.61172 64.7534 4.49741 64.1598 4.50004H35.3398C34.1435 4.50002 32.9958 4.97316 32.1472 5.81623C31.2985 6.65929 30.8177 7.80382 30.8098 9.00004V17.3L19.9198 28.61C19.7882 28.7441 19.686 28.9042 19.6198 29.08C19.5632 29.2408 19.5328 29.4096 19.5298 29.58V91C19.535 92.1867 20.0066 93.3238 20.8429 94.1657C21.6793 95.0077 22.8131 95.4869 23.9998 95.5H75.9998C77.1916 95.4948 78.3332 95.019 79.176 94.1762C80.0187 93.3334 80.4945 92.1919 80.4998 91V29.65V29.64ZM32.9998 19.41H63.3998L54.9998 28.15H24.5498L32.9998 19.41ZM66.9998 20.04L75.3398 28.15H59.1398L66.9998 20.04ZM33.8298 9.00004C33.8324 8.6013 33.9927 8.21979 34.2756 7.93877C34.5585 7.65775 34.941 7.50004 35.3398 7.50004H64.1598C64.5585 7.50004 64.9411 7.65775 65.224 7.93877C65.5069 8.21979 65.6671 8.6013 65.6698 9.00004V16.4H33.8298V9.00004ZM22.5198 91V31.15H53.8498V92.49H23.9998C23.608 92.4823 23.2345 92.3225 22.9583 92.0445C22.6822 91.7664 22.5249 91.3919 22.5198 91ZM77.5198 91C77.5145 91.3988 77.3517 91.7793 77.067 92.0584C76.7822 92.3376 76.3986 92.4927 75.9998 92.49H57.1098V31.15H77.4798L77.5198 91Z" fill="url(#paint0_linear_54236_35323)"/>
<path d="M46.0798 56.75L38.3098 47C38.1636 46.839 37.9853 46.7103 37.7864 46.6222C37.5875 46.5341 37.3724 46.4886 37.1548 46.4886C36.9373 46.4886 36.7222 46.5341 36.5233 46.6222C36.3244 46.7103 36.1461 46.839 35.9998 47L28.2298 56.74C28.0206 57.0049 27.9067 57.3325 27.9067 57.67C27.9067 58.0076 28.0206 58.3352 28.2298 58.6L35.9998 68.35C36.1413 68.5272 36.3208 68.6702 36.5251 68.7685C36.7294 68.8668 36.9531 68.9179 37.1798 68.9179C37.4065 68.9179 37.6303 68.8668 37.8346 68.7685C38.0389 68.6702 38.2184 68.5272 38.3598 68.35L46.1298 58.61C46.3355 58.3411 46.4428 58.0097 46.4337 57.6712C46.4246 57.3327 46.2997 57.0076 46.0798 56.75ZM37.1298 65L31.2898 57.68L37.1298 50.36L42.9998 57.68L37.1298 65Z" fill="url(#paint1_linear_54236_35323)"/>
<defs>
<linearGradient id="paint0_linear_54236_35323" x1="19.5298" y1="50" x2="80.4998" y2="50" gradientUnits="userSpaceOnUse">
<stop stop-color="#275E44"/>
<stop offset="0.0666667" stop-color="#275F45"/>
<stop offset="0.133333" stop-color="#296146"/>
<stop offset="0.2" stop-color="#2B654A"/>
<stop offset="0.266667" stop-color="#2D6B4E"/>
<stop offset="0.333333" stop-color="#317354"/>
<stop offset="0.4" stop-color="#357C5B"/>
<stop offset="0.466667" stop-color="#3A8562"/>
<stop offset="0.533333" stop-color="#3F906A"/>
<stop offset="0.6" stop-color="#449971"/>
<stop offset="0.666667" stop-color="#48A278"/>
<stop offset="0.733333" stop-color="#4CAA7E"/>
<stop offset="0.8" stop-color="#4EB082"/>
<stop offset="0.866667" stop-color="#50B486"/>
<stop offset="0.933333" stop-color="#52B687"/>
<stop offset="1" stop-color="#52B788"/>
</linearGradient>
<linearGradient id="paint1_linear_54236_35323" x1="27.9067" y1="57.7033" x2="46.4342" y2="57.7033" gradientUnits="userSpaceOnUse">
<stop stop-color="#275E44"/>
<stop offset="0.0666667" stop-color="#275F45"/>
<stop offset="0.133333" stop-color="#296146"/>
<stop offset="0.2" stop-color="#2B654A"/>
<stop offset="0.266667" stop-color="#2D6B4E"/>
<stop offset="0.333333" stop-color="#317354"/>
<stop offset="0.4" stop-color="#357C5B"/>
<stop offset="0.466667" stop-color="#3A8562"/>
<stop offset="0.533333" stop-color="#3F906A"/>
<stop offset="0.6" stop-color="#449971"/>
<stop offset="0.666667" stop-color="#48A278"/>
<stop offset="0.733333" stop-color="#4CAA7E"/>
<stop offset="0.8" stop-color="#4EB082"/>
<stop offset="0.866667" stop-color="#50B486"/>
<stop offset="0.933333" stop-color="#52B687"/>
<stop offset="1" stop-color="#52B788"/>
</linearGradient>
</defs>
</svg>
