<svg width="100" height="100" viewBox="0 0 100 100" fill="none" xmlns="http://www.w3.org/2000/svg">
<path d="M95.2999 51.4699C94.7199 45.0999 93.9299 38.8999 91.3599 33.2999L91.2999 33.1799C90.4055 31.2714 89.2985 29.47 87.9999 27.8099C79.9999 17.4699 68.7999 11.8199 54.7099 10.9999C53.4455 10.8849 52.171 11.0325 50.9664 11.4334C49.7618 11.8344 48.6531 12.4801 47.7099 13.3299L46.2599 14.5599C34.5699 24.4699 22.5099 34.6899 10.3799 44.4099C5.7999 48.0699 4.7499 51.8399 4.5299 56.7399C4.4699 58.0099 4.5299 63.8699 4.5299 70.0799C4.5799 76.0799 4.6299 82.8399 4.5299 83.8299C4.41926 84.5595 4.47513 85.3045 4.69334 86.0094C4.91155 86.7142 5.28643 87.3606 5.7899 87.8999C6.70512 88.6816 7.88874 89.0761 9.0899 88.9999C9.59482 88.9978 10.0991 88.9644 10.5999 88.8999C19.4999 87.8199 28.5999 86.8199 37.3499 85.8999L53.5699 84.1099C64.2899 82.9199 75.3699 81.6899 86.2699 80.5699C87.5227 80.5287 88.729 80.0854 89.7105 79.3056C90.692 78.5259 91.3965 77.451 91.7199 76.2399C94.8399 67.3699 95.9999 59.2799 95.2999 51.4699ZM12.2999 46.7799C24.4199 36.9999 36.4799 26.7999 48.1599 16.8999L49.5999 15.6799C50.2605 15.0733 51.0427 14.6142 51.8944 14.3331C52.7462 14.0521 53.648 13.9556 54.5399 14.0499C67.7399 14.8099 78.2099 20.0499 85.6699 29.6899C86.4422 30.6856 87.1375 31.7387 87.7499 32.8399C82.8499 33.9699 77.3199 35.2099 71.8099 36.4499C65.6599 37.8399 59.5199 39.2199 54.2999 40.4499C54.0781 40.5062 53.8723 40.6132 53.6988 40.7624C53.5253 40.9116 53.3887 41.099 53.2999 41.3099C53.2073 41.527 53.1654 41.7624 53.1775 41.998C53.1897 42.2337 53.2555 42.4635 53.3699 42.6699C55.9399 47.2699 55.4899 49.1399 53.7699 50.9799C53.0426 51.834 52.0644 52.4369 50.9745 52.7026C49.8846 52.9683 48.7387 52.8834 47.6999 52.4599C46.3458 51.8961 45.2096 50.9107 44.4599 49.6499C44.0388 48.6546 43.8049 47.5901 43.7699 46.5099C43.6999 45.8799 43.6299 45.2299 43.5199 44.5699C43.4823 44.3676 43.4045 44.1749 43.2911 44.0031C43.1778 43.8314 43.0312 43.6841 42.8599 43.5699C42.6102 43.3889 42.3083 43.2942 41.9999 43.2999C41.8871 43.2847 41.7727 43.2847 41.6599 43.2999L32.9299 45.3699C24.7599 47.3699 15.5199 49.5399 8.7299 50.9499C9.55878 49.3023 10.7648 47.8736 12.2499 46.7799H12.2999ZM88.9399 75.1799C88.8052 75.8536 88.4358 76.4576 87.8974 76.8843C87.359 77.311 86.6865 77.5328 85.9999 77.5099C75.0799 78.6299 63.9999 79.8599 53.2699 81.0499L36.9999 82.8399C28.2199 83.8399 19.1399 84.8399 10.2199 85.8399C8.5299 86.0499 7.9999 85.84 7.8399 85.66C7.56873 85.1515 7.48383 84.5643 7.5999 83.9999C7.6599 82.9999 7.5999 77.7999 7.5999 69.9999C7.5499 64.1099 7.5099 57.9999 7.5999 56.8199C7.61439 55.8763 7.68787 54.9344 7.8199 53.9999C8.09088 54.1034 8.38566 54.1277 8.6699 54.0699C15.5599 52.6599 25.1599 50.3599 33.6699 48.3399C36.1899 47.7299 38.5999 47.1599 40.7699 46.6499C40.7699 46.6499 40.7699 46.7399 40.7699 46.7799C40.8325 48.2729 41.1928 49.7383 41.8299 51.0899C42.9244 52.9742 44.6175 54.4385 46.6399 55.2499C48.2312 55.8911 49.9826 56.0209 51.6509 55.6212C53.3193 55.2216 54.8218 54.3124 55.9499 53.0199C58.5599 50.2099 58.8799 47.1999 56.8999 42.9199C61.6699 41.8199 67.0799 40.6099 72.4899 39.3899C78.2599 38.0899 84.0499 36.7799 89.1299 35.6099C91.1299 40.4599 91.7999 45.8599 92.3399 51.7199C92.9999 59.1099 91.8599 66.7699 88.8899 75.1799H88.9399Z" fill="url(#paint0_linear_54236_35309)"/>
<path d="M74.8901 41.37C73.706 41.3671 72.5329 41.5979 71.438 42.0492C70.3432 42.5005 69.3483 43.1634 68.5101 44C67.6828 44.8091 67.025 45.775 66.5751 46.8413C66.1253 47.9075 65.8924 49.0527 65.8901 50.21C65.9412 52.4927 66.858 54.6707 68.4548 56.3028C70.0516 57.9349 72.209 58.8991 74.4901 59H74.7301C77.0024 58.9775 79.1764 58.0699 80.7901 56.47C82.0345 55.2627 82.895 53.715 83.2638 52.0209C83.6327 50.3267 83.4934 48.5614 82.8635 46.9461C82.2336 45.3308 81.141 43.9372 79.7227 42.94C78.3044 41.9427 76.6233 41.3861 74.8901 41.34V41.37ZM78.7001 54.37C78.1565 54.9051 77.5106 55.3252 76.801 55.6052C76.0914 55.8853 75.3327 56.0195 74.5701 56C73.0672 55.9204 71.6491 55.2789 70.597 54.2027C69.5449 53.1266 68.9357 51.6943 68.8901 50.19C68.9153 48.6803 69.5373 47.2421 70.6201 46.19C71.7139 45.0973 73.1941 44.4793 74.7401 44.47H74.8301C75.9682 44.4943 77.0735 44.8552 78.0065 45.5072C78.9395 46.1592 79.6585 47.0731 80.0725 48.1334C80.4866 49.1937 80.5772 50.3529 80.3329 51.4646C80.0887 52.5764 79.5205 53.5909 78.7001 54.38V54.37Z" fill="url(#paint1_linear_54236_35309)"/>
<path d="M40.36 63.29C39.3197 63.286 38.2892 63.4921 37.3304 63.8959C36.3716 64.2997 35.5041 64.8929 34.78 65.64C33.7321 66.769 33.0324 68.1766 32.765 69.6936C32.4976 71.2106 32.6739 72.7726 33.2726 74.1919C33.8714 75.6112 34.8672 76.8274 36.1404 77.6945C37.4136 78.5616 38.9101 79.0427 40.45 79.08H40.59C41.6342 79.0575 42.663 78.8245 43.615 78.3949C44.5669 77.9653 45.4224 77.348 46.13 76.58C46.859 75.8059 47.4264 74.8943 47.799 73.8984C48.1716 72.9026 48.3419 71.8424 48.3 70.78C48.2244 68.7393 47.3494 66.8102 45.864 65.4089C44.3785 64.0076 42.4017 63.2466 40.36 63.29ZM43.94 74.49C43.5036 74.9596 42.9763 75.3357 42.3901 75.5952C41.8039 75.8548 41.1711 75.9925 40.53 76H40.45C39.5104 75.9528 38.6032 75.6415 37.8326 75.1018C37.062 74.5621 36.4592 73.8159 36.0937 72.949C35.7281 72.0821 35.6146 71.1297 35.7661 70.2012C35.9175 69.2727 36.3279 68.4057 36.95 67.7C37.4005 67.2441 37.9381 66.8834 38.5308 66.6395C39.1235 66.3955 39.7591 66.2733 40.4 66.28C41.6511 66.2527 42.8629 66.7171 43.7753 67.5734C44.6877 68.4298 45.228 69.6097 45.28 70.86C45.3136 71.5242 45.2122 72.1883 44.9819 72.8122C44.7516 73.4361 44.3971 74.0069 43.94 74.49Z" fill="url(#paint2_linear_54236_35309)"/>
<path d="M65.93 63.3C62.5 63.14 60.13 65.19 59.64 68.8C59.5574 69.6515 59.6603 70.5108 59.9417 71.3188C60.2231 72.1267 60.6762 72.864 61.27 73.48C61.7871 74.0643 62.4188 74.5362 63.1257 74.8665C63.8327 75.1967 64.6 75.3783 65.38 75.4H65.75C67.3097 75.3921 68.8032 74.769 69.9061 73.6661C71.009 72.5632 71.6321 71.0697 71.64 69.51C71.6446 69.4567 71.6446 69.4032 71.64 69.35C71.53 65.67 69.45 63.47 65.93 63.3ZM65.52 72.36C65.1245 72.3531 64.7354 72.26 64.3796 72.0873C64.0238 71.9146 63.71 71.6664 63.46 71.36C63.1736 71.0747 62.9508 70.7321 62.806 70.3547C62.6613 69.9773 62.5979 69.5736 62.62 69.17C62.96 66.68 64.37 66.29 65.52 66.29H65.79C67.73 66.38 68.56 67.29 68.64 69.29C68.48 71.28 67.52 72.21 65.52 72.36Z" fill="url(#paint3_linear_54236_35309)"/>
<path d="M35.7002 57.74C35.6824 56.5747 35.3205 55.4407 34.66 54.4805C33.9995 53.5203 33.0698 52.7768 31.9878 52.3436C30.9059 51.9103 29.72 51.8066 28.5793 52.0456C27.4386 52.2845 26.394 52.8553 25.5769 53.6863C24.7597 54.5173 24.2065 55.5713 23.9868 56.7159C23.7671 57.8605 23.8907 59.0444 24.3421 60.1189C24.7935 61.1934 25.5524 62.1105 26.5236 62.7548C27.4947 63.3991 28.6347 63.7419 29.8002 63.74C30.5819 63.7348 31.355 63.5753 32.0749 63.2707C32.7949 62.9661 33.4477 62.5224 33.9958 61.9649C34.544 61.4075 34.9767 60.7474 35.2691 60.0224C35.5616 59.2974 35.7081 58.5218 35.7002 57.74ZM29.8002 60.67C29.2166 60.678 28.6439 60.5121 28.155 60.1934C27.6661 59.8748 27.283 59.4179 27.0547 58.8808C26.8263 58.3438 26.7629 57.7509 26.8726 57.1777C26.9823 56.6045 27.2601 56.0769 27.6706 55.6621C28.0812 55.2474 28.6059 54.9641 29.1779 54.8486C29.7499 54.733 30.3434 54.7902 30.8828 55.0131C31.4222 55.2359 31.883 55.6142 32.2067 56.0999C32.5303 56.5855 32.7021 57.1564 32.7002 57.74C32.7028 58.5127 32.3991 59.255 31.8555 59.8042C31.312 60.3534 30.5729 60.6647 29.8002 60.67Z" fill="url(#paint4_linear_54236_35309)"/>
<path d="M21.0002 69.18C19.9574 69.1681 18.9346 69.4665 18.0617 70.0372C17.1889 70.6079 16.5053 71.4252 16.098 72.3852C15.6907 73.3452 15.5779 74.4047 15.774 75.4289C15.9702 76.4532 16.4663 77.396 17.1995 78.1377C17.9327 78.8793 18.8698 79.3863 19.8917 79.5941C20.9137 79.802 21.9743 79.7014 22.939 79.3051C23.9036 78.9088 24.7287 78.2347 25.3094 77.3685C25.89 76.5022 26.2001 75.4829 26.2002 74.44C26.2055 73.0537 25.6613 71.7218 24.6866 70.736C23.712 69.7501 22.3864 69.1906 21.0002 69.18ZM21.0002 76.66C20.5599 76.666 20.1277 76.5409 19.7587 76.3006C19.3897 76.0603 19.1005 75.7157 18.9279 75.3106C18.7553 74.9055 18.707 74.4582 18.7892 74.0256C18.8715 73.593 19.0805 73.1947 19.3898 72.8812C19.699 72.5677 20.0945 72.3533 20.5259 72.2651C20.9574 72.177 21.4053 72.2192 21.8127 72.3863C22.2201 72.5534 22.5686 72.8379 22.8139 73.2036C23.0591 73.5693 23.1901 73.9997 23.1902 74.44C23.1928 75.0244 22.9639 75.5861 22.5535 76.0022C22.1431 76.4182 21.5846 76.6548 21.0002 76.66Z" fill="url(#paint5_linear_54236_35309)"/>
<defs>
<linearGradient id="paint0_linear_54236_35309" x1="4.47461" y1="49.9856" x2="95.4968" y2="49.9856" gradientUnits="userSpaceOnUse">
<stop stop-color="#275E44"/>
<stop offset="0.0666667" stop-color="#275F45"/>
<stop offset="0.133333" stop-color="#296146"/>
<stop offset="0.2" stop-color="#2B654A"/>
<stop offset="0.266667" stop-color="#2D6B4E"/>
<stop offset="0.333333" stop-color="#317354"/>
<stop offset="0.4" stop-color="#357C5B"/>
<stop offset="0.466667" stop-color="#3A8562"/>
<stop offset="0.533333" stop-color="#3F906A"/>
<stop offset="0.6" stop-color="#449971"/>
<stop offset="0.666667" stop-color="#48A278"/>
<stop offset="0.733333" stop-color="#4CAA7E"/>
<stop offset="0.8" stop-color="#4EB082"/>
<stop offset="0.866667" stop-color="#50B486"/>
<stop offset="0.933333" stop-color="#52B687"/>
<stop offset="1" stop-color="#52B788"/>
</linearGradient>
<linearGradient id="paint1_linear_54236_35309" x1="65.8901" y1="50.17" x2="83.4655" y2="50.17" gradientUnits="userSpaceOnUse">
<stop stop-color="#275E44"/>
<stop offset="0.0666667" stop-color="#275F45"/>
<stop offset="0.133333" stop-color="#296146"/>
<stop offset="0.2" stop-color="#2B654A"/>
<stop offset="0.266667" stop-color="#2D6B4E"/>
<stop offset="0.333333" stop-color="#317354"/>
<stop offset="0.4" stop-color="#357C5B"/>
<stop offset="0.466667" stop-color="#3A8562"/>
<stop offset="0.533333" stop-color="#3F906A"/>
<stop offset="0.6" stop-color="#449971"/>
<stop offset="0.666667" stop-color="#48A278"/>
<stop offset="0.733333" stop-color="#4CAA7E"/>
<stop offset="0.8" stop-color="#4EB082"/>
<stop offset="0.866667" stop-color="#50B486"/>
<stop offset="0.933333" stop-color="#52B687"/>
<stop offset="1" stop-color="#52B788"/>
</linearGradient>
<linearGradient id="paint2_linear_54236_35309" x1="32.6436" y1="71.1841" x2="48.3062" y2="71.1841" gradientUnits="userSpaceOnUse">
<stop stop-color="#275E44"/>
<stop offset="0.0666667" stop-color="#275F45"/>
<stop offset="0.133333" stop-color="#296146"/>
<stop offset="0.2" stop-color="#2B654A"/>
<stop offset="0.266667" stop-color="#2D6B4E"/>
<stop offset="0.333333" stop-color="#317354"/>
<stop offset="0.4" stop-color="#357C5B"/>
<stop offset="0.466667" stop-color="#3A8562"/>
<stop offset="0.533333" stop-color="#3F906A"/>
<stop offset="0.6" stop-color="#449971"/>
<stop offset="0.666667" stop-color="#48A278"/>
<stop offset="0.733333" stop-color="#4CAA7E"/>
<stop offset="0.8" stop-color="#4EB082"/>
<stop offset="0.866667" stop-color="#50B486"/>
<stop offset="0.933333" stop-color="#52B687"/>
<stop offset="1" stop-color="#52B788"/>
</linearGradient>
<linearGradient id="paint3_linear_54236_35309" x1="59.6123" y1="69.3456" x2="71.6435" y2="69.3456" gradientUnits="userSpaceOnUse">
<stop stop-color="#275E44"/>
<stop offset="0.0666667" stop-color="#275F45"/>
<stop offset="0.133333" stop-color="#296146"/>
<stop offset="0.2" stop-color="#2B654A"/>
<stop offset="0.266667" stop-color="#2D6B4E"/>
<stop offset="0.333333" stop-color="#317354"/>
<stop offset="0.4" stop-color="#357C5B"/>
<stop offset="0.466667" stop-color="#3A8562"/>
<stop offset="0.533333" stop-color="#3F906A"/>
<stop offset="0.6" stop-color="#449971"/>
<stop offset="0.666667" stop-color="#48A278"/>
<stop offset="0.733333" stop-color="#4CAA7E"/>
<stop offset="0.8" stop-color="#4EB082"/>
<stop offset="0.866667" stop-color="#50B486"/>
<stop offset="0.933333" stop-color="#52B687"/>
<stop offset="1" stop-color="#52B788"/>
</linearGradient>
<linearGradient id="paint4_linear_54236_35309" x1="23.8809" y1="57.83" x2="35.7005" y2="57.83" gradientUnits="userSpaceOnUse">
<stop stop-color="#275E44"/>
<stop offset="0.0666667" stop-color="#275F45"/>
<stop offset="0.133333" stop-color="#296146"/>
<stop offset="0.2" stop-color="#2B654A"/>
<stop offset="0.266667" stop-color="#2D6B4E"/>
<stop offset="0.333333" stop-color="#317354"/>
<stop offset="0.4" stop-color="#357C5B"/>
<stop offset="0.466667" stop-color="#3A8562"/>
<stop offset="0.533333" stop-color="#3F906A"/>
<stop offset="0.6" stop-color="#449971"/>
<stop offset="0.666667" stop-color="#48A278"/>
<stop offset="0.733333" stop-color="#4CAA7E"/>
<stop offset="0.8" stop-color="#4EB082"/>
<stop offset="0.866667" stop-color="#50B486"/>
<stop offset="0.933333" stop-color="#52B687"/>
<stop offset="1" stop-color="#52B788"/>
</linearGradient>
<linearGradient id="paint5_linear_54236_35309" x1="15.6802" y1="74.4397" x2="26.2002" y2="74.4397" gradientUnits="userSpaceOnUse">
<stop stop-color="#275E44"/>
<stop offset="0.0666667" stop-color="#275F45"/>
<stop offset="0.133333" stop-color="#296146"/>
<stop offset="0.2" stop-color="#2B654A"/>
<stop offset="0.266667" stop-color="#2D6B4E"/>
<stop offset="0.333333" stop-color="#317354"/>
<stop offset="0.4" stop-color="#357C5B"/>
<stop offset="0.466667" stop-color="#3A8562"/>
<stop offset="0.533333" stop-color="#3F906A"/>
<stop offset="0.6" stop-color="#449971"/>
<stop offset="0.666667" stop-color="#48A278"/>
<stop offset="0.733333" stop-color="#4CAA7E"/>
<stop offset="0.8" stop-color="#4EB082"/>
<stop offset="0.866667" stop-color="#50B486"/>
<stop offset="0.933333" stop-color="#52B687"/>
<stop offset="1" stop-color="#52B788"/>
</linearGradient>
</defs>
</svg>
