<svg width="100" height="100" viewBox="0 0 100 100" fill="none" xmlns="http://www.w3.org/2000/svg">
<path d="M93.8801 39.12C90.9001 19.93 80.6101 6 69.4101 6C62.0001 6 54.8801 12.44 50.0901 23.12C45.2401 12.44 37.9301 6 30.2801 6C19.4101 6 9.53014 19.61 6.26014 39.1C4.51014 49.5 5.80014 58.09 10.0001 63.92C13.0601 68.19 17.6001 70.92 23.4701 72.06C23.9201 77.93 25.7101 82.8 28.7901 86.44C33.0001 91.46 39.5301 94 48.1201 94C56.7101 94 63.0501 91.42 67.4001 86.33C70.6191 82.3981 72.5715 77.5834 73.0001 72.52C80.0001 71.84 85.5201 69.12 89.2401 64.4C93.9001 58.45 95.5201 49.71 93.8801 39.12ZM12.4501 62.12C8.74014 57 7.63014 49.19 9.24014 39.6C12.2101 21.89 21.0601 9 30.2801 9C37.2101 9 44.2101 16 48.4801 27.09L48.4201 27.27H48.1201C37.2501 27.27 27.3701 40.89 24.1201 60.38C23.6216 63.2266 23.364 66.1101 23.3501 69C18.984 68.1767 15.0905 65.7334 12.4501 62.16V62.12ZM65.1101 84.37C61.3501 88.75 55.6401 90.97 48.1101 90.97C40.5801 90.97 34.7201 88.79 31.1101 84.48C25.6201 77.98 25.9001 68.07 27.1101 60.9C30.1101 43.18 38.9301 30.32 48.1101 30.32C57.6601 30.32 66.9001 43.46 69.5901 60.88C71.1501 70.84 69.5501 79.18 65.1101 84.37ZM86.8401 62.53C83.7401 66.46 79.1401 68.77 73.1901 69.45C73.2696 66.4379 73.0687 63.4249 72.5901 60.45C70.0001 43.44 61.6101 30.6 52.0001 27.85C51.9101 27.6 51.8201 27.37 51.7301 27.13C56.0001 15.92 62.6601 9 69.4101 9C79.0001 9 88.1901 22.16 90.8901 39.59C92.4001 49.32 91.0001 57.26 86.8401 62.53Z" fill="url(#paint0_linear_54236_35319)"/>
<path d="M72.8 14.3201C72.478 14.1053 72.0858 14.0224 71.7044 14.0885C71.323 14.1545 70.9816 14.3645 70.7506 14.6751C70.5196 14.9857 70.4166 15.3731 70.4631 15.7574C70.5095 16.1417 70.7017 16.4934 71 16.7401C76.74 21.0401 81.39 29.4001 83.78 39.7401C83.862 40.0716 84.0519 40.3664 84.3199 40.5782C84.5878 40.79 84.9185 40.9068 85.26 40.9101C85.3731 40.9193 85.4869 40.9193 85.6 40.9101C85.8022 40.8639 85.9928 40.7768 86.1601 40.6542C86.3274 40.5316 86.4678 40.376 86.5727 40.1971C86.6777 40.0182 86.7449 39.8197 86.7702 39.6138C86.7955 39.4079 86.7784 39.1991 86.72 39.0001C84.17 28.0001 79.1 19.0001 72.8 14.3201Z" fill="url(#paint1_linear_54236_35319)"/>
<path d="M51.5198 35.62C51.3678 35.4662 51.1846 35.3469 50.9825 35.2701C50.7803 35.1933 50.5641 35.1608 50.3483 35.1748C50.1326 35.1888 49.9223 35.249 49.7318 35.3512C49.5413 35.4535 49.375 35.5955 49.2441 35.7676C49.1132 35.9397 49.0208 36.1379 48.9732 36.3488C48.9255 36.5597 48.9237 36.7783 48.9679 36.99C49.012 37.2017 49.1011 37.4014 49.2291 37.5756C49.3571 37.7499 49.5211 37.8946 49.7098 38C55.4398 42.33 60.0998 50.7 62.4898 61C62.5684 61.3383 62.7618 61.6388 63.0372 61.8503C63.3125 62.0619 63.6528 62.1713 63.9998 62.16C64.1127 62.1752 64.227 62.1752 64.3398 62.16C64.7322 62.0695 65.0725 61.827 65.2863 61.4858C65.5 61.1446 65.5696 60.7325 65.4798 60.34C62.8898 49.33 57.8198 40.33 51.5198 35.62Z" fill="url(#paint2_linear_54236_35319)"/>
<defs>
<linearGradient id="paint0_linear_54236_35319" x1="5.50146" y1="50" x2="94.5025" y2="50" gradientUnits="userSpaceOnUse">
<stop stop-color="#275E44"/>
<stop offset="0.0666667" stop-color="#275F45"/>
<stop offset="0.133333" stop-color="#296146"/>
<stop offset="0.2" stop-color="#2B654A"/>
<stop offset="0.266667" stop-color="#2D6B4E"/>
<stop offset="0.333333" stop-color="#317354"/>
<stop offset="0.4" stop-color="#357C5B"/>
<stop offset="0.466667" stop-color="#3A8562"/>
<stop offset="0.533333" stop-color="#3F906A"/>
<stop offset="0.6" stop-color="#449971"/>
<stop offset="0.666667" stop-color="#48A278"/>
<stop offset="0.733333" stop-color="#4CAA7E"/>
<stop offset="0.8" stop-color="#4EB082"/>
<stop offset="0.866667" stop-color="#50B486"/>
<stop offset="0.933333" stop-color="#52B687"/>
<stop offset="1" stop-color="#52B788"/>
</linearGradient>
<linearGradient id="paint1_linear_54236_35319" x1="70.4521" y1="27.4916" x2="86.7816" y2="27.4916" gradientUnits="userSpaceOnUse">
<stop stop-color="#275E44"/>
<stop offset="0.0666667" stop-color="#275F45"/>
<stop offset="0.133333" stop-color="#296146"/>
<stop offset="0.2" stop-color="#2B654A"/>
<stop offset="0.266667" stop-color="#2D6B4E"/>
<stop offset="0.333333" stop-color="#317354"/>
<stop offset="0.4" stop-color="#357C5B"/>
<stop offset="0.466667" stop-color="#3A8562"/>
<stop offset="0.533333" stop-color="#3F906A"/>
<stop offset="0.6" stop-color="#449971"/>
<stop offset="0.666667" stop-color="#48A278"/>
<stop offset="0.733333" stop-color="#4CAA7E"/>
<stop offset="0.8" stop-color="#4EB082"/>
<stop offset="0.866667" stop-color="#50B486"/>
<stop offset="0.933333" stop-color="#52B687"/>
<stop offset="1" stop-color="#52B788"/>
</linearGradient>
<linearGradient id="paint2_linear_54236_35319" x1="48.936" y1="48.6715" x2="65.5181" y2="48.6715" gradientUnits="userSpaceOnUse">
<stop stop-color="#275E44"/>
<stop offset="0.0666667" stop-color="#275F45"/>
<stop offset="0.133333" stop-color="#296146"/>
<stop offset="0.2" stop-color="#2B654A"/>
<stop offset="0.266667" stop-color="#2D6B4E"/>
<stop offset="0.333333" stop-color="#317354"/>
<stop offset="0.4" stop-color="#357C5B"/>
<stop offset="0.466667" stop-color="#3A8562"/>
<stop offset="0.533333" stop-color="#3F906A"/>
<stop offset="0.6" stop-color="#449971"/>
<stop offset="0.666667" stop-color="#48A278"/>
<stop offset="0.733333" stop-color="#4CAA7E"/>
<stop offset="0.8" stop-color="#4EB082"/>
<stop offset="0.866667" stop-color="#50B486"/>
<stop offset="0.933333" stop-color="#52B687"/>
<stop offset="1" stop-color="#52B788"/>
</linearGradient>
</defs>
</svg>
