<svg width="100" height="100" viewBox="0 0 100 100" fill="none" xmlns="http://www.w3.org/2000/svg">
<path d="M71.9998 35.73C75.8327 39.8833 78.0655 45.2632 78.2998 50.91C78.2998 51.69 78.2998 52.46 78.2998 53.23V53.69C78.2998 54.0878 78.4578 54.4694 78.7391 54.7507C79.0204 55.032 79.402 55.19 79.7998 55.19C80.1976 55.19 80.5791 55.032 80.8604 54.7507C81.1417 54.4694 81.2998 54.0878 81.2998 53.69V53.21C81.2998 52.4 81.2998 51.59 81.2998 50.77C81.0161 44.4276 78.5015 38.3892 74.1998 33.72C73.9289 33.4272 73.5537 33.2526 73.1553 33.2339C72.7568 33.2151 72.3669 33.3538 72.0698 33.62C71.9242 33.7517 71.8062 33.9109 71.7223 34.0884C71.6385 34.2659 71.5906 34.4582 71.5813 34.6542C71.572 34.8503 71.6015 35.0463 71.6682 35.2309C71.7349 35.4155 71.8374 35.5851 71.9698 35.73H71.9998Z" fill="url(#paint0_linear_54236_35302)"/>
<path d="M91 46.63C90.6918 40.1496 88.0741 33.9936 83.6206 29.2759C79.1671 24.5582 73.1719 21.5906 66.72 20.91C65.57 20.8 64.43 20.74 63.3 20.74C59.633 20.7309 55.9945 21.3848 52.56 22.67C56.8345 15.7322 62.9054 10.0794 70.13 6.30996C70.3056 6.22306 70.4621 6.10194 70.5902 5.95371C70.7183 5.80548 70.8155 5.63314 70.8761 5.4468C70.9366 5.26047 70.9593 5.06391 70.9428 4.86868C70.9263 4.67345 70.871 4.48349 70.78 4.30996C70.5967 3.96277 70.2846 3.70128 69.9107 3.58162C69.5367 3.46196 69.1308 3.49368 68.78 3.66996C61.3839 7.4923 55.1112 13.1756 50.58 20.16C48.79 18.88 40.05 13.16 29.58 14.71C22.3 15.8 15.9 20.17 10.58 27.71C10.5531 27.7443 10.5297 27.7811 10.51 27.82L10.43 27.95C10.43 28 10.43 28.05 10.43 28.1C10.43 28.15 10.43 28.18 10.43 28.23C10.43 28.28 10.43 28.33 10.43 28.38C10.43 28.43 10.43 28.47 10.43 28.51C10.43 28.55 10.43 28.61 10.43 28.66C10.435 28.7065 10.435 28.7534 10.43 28.8C10.43 28.85 10.43 28.89 10.43 28.94C10.4256 28.9865 10.4256 29.0334 10.43 29.08C10.4459 29.1219 10.466 29.1621 10.49 29.2L10.55 29.34L10.64 29.45L10.73 29.57C10.7641 29.606 10.8009 29.6394 10.84 29.67L10.94 29.76C11.9533 30.5033 13.0195 31.1717 14.13 31.76C11.1394 35.8036 9.40406 40.6375 9.14 45.66C9.05 47.08 9 48.48 9 49.87C9.04526 62.7276 13.0348 75.2617 20.43 85.78C21.9038 88.0117 23.677 90.0306 25.7 91.78C27.8039 93.5735 30.2649 94.8995 32.92 95.67H32.98C34.4683 96.1915 36.033 96.4619 37.61 96.47C39.459 96.4337 41.2898 96.0959 43.03 95.47C45.35 94.74 47.38 93.64 49.36 92.86L49.9 92.67H50.05C53.6587 94.9144 57.8016 96.1538 62.05 96.26H62.23C62.48 96.26 63.06 96.19 63.91 96.06C65.5756 95.8155 67.2157 95.4206 68.81 94.88C70.6708 94.2806 72.3776 93.2804 73.81 91.95C78.6885 87.6424 82.5162 82.2754 85 76.26C88.8806 67.7199 90.9247 58.4601 91 49.08C91 48.26 91 47.45 91 46.63ZM30 17.63C38 16.43 45 20.14 47.82 21.88C36.56 35.46 24 32.86 17.35 30C17.1928 29.8911 17.0163 29.813 16.83 29.77C15.8211 29.3137 14.8395 28.7995 13.89 28.23C18.53 22.12 23.94 18.58 30 17.66V17.63ZM82.22 75.07C79.76 80.67 76.6 85.71 72 89.67L71.9 89.77C71.1666 90.4826 70.3092 91.0553 69.37 91.46C67.8519 92.1263 66.2611 92.6129 64.63 92.91C63.92 93.04 63.3 93.13 62.85 93.18L62.33 93.24H62.2C58.3803 93.171 54.6537 92.0499 51.43 90C51.0644 89.773 50.6402 89.6583 50.21 89.67C49.8342 89.6781 49.461 89.7352 49.1 89.84C48.78 89.94 48.49 90.04 48.26 90.13C46.07 91.01 44.1 92.07 42.16 92.66C40.7132 93.2056 39.1856 93.5064 37.64 93.55C36.3716 93.542 35.1137 93.3188 33.92 92.89H33.84C31.5642 92.2382 29.456 91.1022 27.66 89.56C25.844 87.9845 24.2525 86.1676 22.93 84.16C15.8526 74.1232 12.0364 62.151 12 49.87C12 48.55 12 47.21 12.13 45.87C12.3519 41.2226 14.0078 36.758 16.87 33.09C20.3448 34.5047 24.0583 35.2413 27.81 35.26C34.28 35.26 41.45 32.93 48.04 26.15C48.7129 26.4125 49.4277 26.5514 50.15 26.56C50.6866 26.5736 51.2194 26.4677 51.71 26.25C55.3419 24.5695 59.2982 23.7058 63.3 23.72C64.3421 23.7189 65.3835 23.7723 66.42 23.88C72.1537 24.4912 77.4801 27.1321 81.4374 31.326C85.3947 35.5199 87.7223 40.9904 88 46.75C88 47.53 88 48.3 88 49.08C87.9187 58.0529 85.9493 66.9083 82.22 75.07Z" fill="url(#paint1_linear_54236_35302)"/>
<defs>
<linearGradient id="paint0_linear_54236_35302" x1="71.5796" y1="44.2111" x2="81.2998" y2="44.2111" gradientUnits="userSpaceOnUse">
<stop stop-color="#275E44"/>
<stop offset="0.0666667" stop-color="#275F45"/>
<stop offset="0.133333" stop-color="#296146"/>
<stop offset="0.2" stop-color="#2B654A"/>
<stop offset="0.266667" stop-color="#2D6B4E"/>
<stop offset="0.333333" stop-color="#317354"/>
<stop offset="0.4" stop-color="#357C5B"/>
<stop offset="0.466667" stop-color="#3A8562"/>
<stop offset="0.533333" stop-color="#3F906A"/>
<stop offset="0.6" stop-color="#449971"/>
<stop offset="0.666667" stop-color="#48A278"/>
<stop offset="0.733333" stop-color="#4CAA7E"/>
<stop offset="0.8" stop-color="#4EB082"/>
<stop offset="0.866667" stop-color="#50B486"/>
<stop offset="0.933333" stop-color="#52B687"/>
<stop offset="1" stop-color="#52B788"/>
</linearGradient>
<linearGradient id="paint1_linear_54236_35302" x1="9" y1="49.9901" x2="91" y2="49.9901" gradientUnits="userSpaceOnUse">
<stop stop-color="#275E44"/>
<stop offset="0.0666667" stop-color="#275F45"/>
<stop offset="0.133333" stop-color="#296146"/>
<stop offset="0.2" stop-color="#2B654A"/>
<stop offset="0.266667" stop-color="#2D6B4E"/>
<stop offset="0.333333" stop-color="#317354"/>
<stop offset="0.4" stop-color="#357C5B"/>
<stop offset="0.466667" stop-color="#3A8562"/>
<stop offset="0.533333" stop-color="#3F906A"/>
<stop offset="0.6" stop-color="#449971"/>
<stop offset="0.666667" stop-color="#48A278"/>
<stop offset="0.733333" stop-color="#4CAA7E"/>
<stop offset="0.8" stop-color="#4EB082"/>
<stop offset="0.866667" stop-color="#50B486"/>
<stop offset="0.933333" stop-color="#52B687"/>
<stop offset="1" stop-color="#52B788"/>
</linearGradient>
</defs>
</svg>
