<svg width="100" height="100" viewBox="0 0 100 100" fill="none" xmlns="http://www.w3.org/2000/svg">
<path d="M17.6 33.68C17.5531 33.4868 17.4685 33.3047 17.3511 33.1442C17.2336 32.9837 17.0856 32.848 16.9156 32.7448C16.7456 32.6417 16.5568 32.5731 16.3602 32.5431C16.1636 32.5132 15.963 32.5223 15.77 32.57C15.3792 32.6736 15.0448 32.9267 14.839 33.2747C14.6332 33.6227 14.5725 34.0377 14.67 34.43C16.1225 40.1663 19.0057 45.4406 23.05 49.76C23.1841 49.908 23.3467 50.0275 23.5279 50.1114C23.7092 50.1953 23.9055 50.2419 24.1051 50.2485C24.3048 50.255 24.5037 50.2213 24.6901 50.1494C24.8764 50.0776 25.0464 49.9689 25.19 49.83C25.4828 49.5465 25.653 49.1597 25.6642 48.7523C25.6754 48.3449 25.5267 47.9492 25.25 47.65C21.5633 43.7126 18.9318 38.907 17.6 33.68Z" fill="url(#paint0_linear_54236_35316)"/>
<path d="M88.8299 69.07C86.0099 66.5 80.6699 66.56 77.1899 68.07C76.4199 67.8 74.4999 66.27 69.7999 60.79L70.0299 60.55C72.0299 58.46 73.0299 56.94 70.1799 53.49L70.0899 53.38C66.9699 49.57 64.7899 43.47 63.5999 35.16C60.9399 21.39 49.0799 9.86996 35.4199 7.79996C32.1378 7.26022 28.7803 7.39413 25.5517 8.19355C22.323 8.99297 19.2909 10.4412 16.6399 12.45C16.5172 12.4992 16.4026 12.5666 16.2999 12.65C15.7699 13.09 15.2999 13.55 14.7799 14.03L14.3599 14.45C14.2099 14.61 14.0599 14.75 13.9199 14.91C13.4437 15.3997 12.9931 15.9137 12.5699 16.45C12.4868 16.5583 12.4164 16.6757 12.3599 16.8C10.3795 19.5245 8.95707 22.6137 8.17451 25.8898C7.39194 29.166 7.26463 32.5645 7.79988 35.89C9.79988 49.79 21.1599 61.89 34.7999 64.56C42.8899 65.76 48.8999 67.97 52.6399 71.14L52.7399 71.23C54.2499 72.5 55.3799 73 56.3499 73C57.5799 73 58.5499 72.19 59.6999 71.08L60.0299 70.75L60.2799 70.51C61.4299 71.67 63.5399 73.92 64.9199 75.41L67.7699 78.41C67.7699 78.7 67.6999 78.98 67.6599 79.26C67.3602 80.9087 67.2728 82.589 67.3999 84.26C68.0399 89.07 71.2399 92.26 75.7599 92.46C76.0799 92.46 76.4132 92.46 76.7599 92.46C80.0299 92.46 84.0099 91.46 85.3899 85.12C85.4799 84.85 85.4999 84.84 85.6999 84.76C89.6999 83.16 91.4699 81.95 92.2599 78.59C93.0499 75.23 91.8799 71.86 88.8299 69.07ZM57.5999 68.86C57.2267 69.2751 56.7995 69.6383 56.3299 69.94C56.3299 69.94 55.9399 69.94 54.6699 68.86L54.5799 68.78C50.3999 65.24 43.8899 62.78 35.3099 61.53C22.9999 59.06 12.6399 48.09 10.7899 35.44C10.2448 32.1626 10.4415 28.8048 11.3657 25.6135C12.2898 22.4223 13.9178 19.4789 16.1299 17L16.4599 16.66L16.8499 16.27C19.2546 14.0311 22.1429 12.3766 25.2906 11.4349C28.4383 10.4932 31.7607 10.2896 34.9999 10.84C47.4199 12.73 58.2099 23.21 60.6199 35.7C61.8799 44.5 64.2899 51.12 67.7699 55.37L67.8499 55.46C68.8499 56.75 68.9099 57.12 68.9099 57.15C68.617 57.6291 68.2566 58.0635 67.8399 58.44L67.5099 58.8L66.6999 59.67C64.6758 61.5271 62.772 63.5111 60.9999 65.61L57.9999 68.52L57.5999 68.86ZM89.3099 77.92C88.9099 79.66 88.4199 80.4 84.5799 81.92C84.0763 82.1138 83.625 82.4227 83.2621 82.8221C82.8992 83.2215 82.6348 83.7002 82.4899 84.22C82.4852 84.2799 82.4852 84.3401 82.4899 84.4C81.4899 88.82 79.3799 89.57 75.9699 89.4C72.9699 89.23 70.8699 87.16 70.4299 83.86C70.3598 82.4642 70.4503 81.065 70.6999 79.69C70.7699 79.15 70.8399 78.59 70.9099 78.03C70.9384 77.7681 70.9002 77.5034 70.7988 77.2603C70.6973 77.0173 70.536 76.8039 70.3299 76.64C70.0099 76.35 68.4999 74.73 67.1599 73.29C64.9199 70.9 63.4899 69.38 62.5699 68.45L63.1899 67.77L64.6399 66.38C64.7848 66.2449 64.9005 66.0815 64.9799 65.9C65.1569 65.8179 65.3165 65.7024 65.4499 65.56L67.7599 63.05C73.7599 69.98 76.2799 71.92 78.2599 70.98C80.8099 69.79 85.0199 69.69 86.8499 71.36C88.9999 73.38 89.8599 75.58 89.3099 77.92Z" fill="url(#paint1_linear_54236_35316)"/>
<defs>
<linearGradient id="paint0_linear_54236_35316" x1="14.6245" y1="41.3876" x2="25.6648" y2="41.3876" gradientUnits="userSpaceOnUse">
<stop stop-color="#275E44"/>
<stop offset="0.0666667" stop-color="#275F45"/>
<stop offset="0.133333" stop-color="#296146"/>
<stop offset="0.2" stop-color="#2B654A"/>
<stop offset="0.266667" stop-color="#2D6B4E"/>
<stop offset="0.333333" stop-color="#317354"/>
<stop offset="0.4" stop-color="#357C5B"/>
<stop offset="0.466667" stop-color="#3A8562"/>
<stop offset="0.533333" stop-color="#3F906A"/>
<stop offset="0.6" stop-color="#449971"/>
<stop offset="0.666667" stop-color="#48A278"/>
<stop offset="0.733333" stop-color="#4CAA7E"/>
<stop offset="0.8" stop-color="#4EB082"/>
<stop offset="0.866667" stop-color="#50B486"/>
<stop offset="0.933333" stop-color="#52B687"/>
<stop offset="1" stop-color="#52B788"/>
</linearGradient>
<linearGradient id="paint1_linear_54236_35316" x1="7.4751" y1="49.9675" x2="92.4994" y2="49.9675" gradientUnits="userSpaceOnUse">
<stop stop-color="#275E44"/>
<stop offset="0.0666667" stop-color="#275F45"/>
<stop offset="0.133333" stop-color="#296146"/>
<stop offset="0.2" stop-color="#2B654A"/>
<stop offset="0.266667" stop-color="#2D6B4E"/>
<stop offset="0.333333" stop-color="#317354"/>
<stop offset="0.4" stop-color="#357C5B"/>
<stop offset="0.466667" stop-color="#3A8562"/>
<stop offset="0.533333" stop-color="#3F906A"/>
<stop offset="0.6" stop-color="#449971"/>
<stop offset="0.666667" stop-color="#48A278"/>
<stop offset="0.733333" stop-color="#4CAA7E"/>
<stop offset="0.8" stop-color="#4EB082"/>
<stop offset="0.866667" stop-color="#50B486"/>
<stop offset="0.933333" stop-color="#52B687"/>
<stop offset="1" stop-color="#52B788"/>
</linearGradient>
</defs>
</svg>
