<svg width="100" height="100" viewBox="0 0 100 100" fill="none" xmlns="http://www.w3.org/2000/svg">
<path d="M93.5698 87.07C87.9098 73 59.6798 39 58.5398 37.66C58.3298 37.38 53.3698 30.66 46.0098 30.02C44.0145 29.8441 42.0056 30.1316 40.1398 30.86C40.0338 30.6121 39.8996 30.3772 39.7398 30.16L37.4898 27.25C37.0263 26.6639 36.3695 26.2617 35.6367 26.1151C34.904 25.9686 34.143 26.0873 33.4898 26.45L27.9998 6.53005C27.666 5.3052 26.8605 4.26246 25.7598 3.63005C25.2171 3.31696 24.6175 3.11504 23.996 3.03607C23.3745 2.95709 22.7435 3.00264 22.1398 3.17005C20.9179 3.51083 19.8812 4.32233 19.2569 5.42652C18.6326 6.53072 18.4718 7.83744 18.8098 9.06005L19.9998 13.3L16.4998 9.81005C15.5927 8.91977 14.3707 8.42379 13.0998 8.43005C12.472 8.43528 11.8515 8.5641 11.2736 8.80917C10.6956 9.05423 10.1716 9.41073 9.73145 9.85831C9.2913 10.3059 8.94362 10.8358 8.70826 11.4178C8.47291 11.9997 8.35448 12.6223 8.35976 13.25C8.36458 14.5188 8.87153 15.734 9.76976 16.63L13.4098 20.23L8.99976 19.07C8.39369 18.9121 7.76241 18.8754 7.14211 18.9619C6.52181 19.0484 5.92467 19.2565 5.38493 19.5742C4.8452 19.8919 4.37346 20.313 3.99677 20.8134C3.62008 21.3137 3.34584 21.8835 3.18976 22.49C2.86915 23.7165 3.04672 25.02 3.68371 26.116C4.32071 27.212 5.3654 28.0115 6.58976 28.34L24.9998 33.2C24.6259 33.7515 24.4353 34.4068 24.455 35.0728C24.4748 35.7388 24.7039 36.3817 25.1098 36.91L27.3598 39.82C27.6907 40.2605 28.1323 40.6056 28.6398 40.82C27.6992 42.5174 27.1684 44.4111 27.0898 46.35C26.9198 51.61 30.2498 56.81 36.9898 61.82C53.4298 74 70.4398 86.38 83.5298 94.34C84.7598 95.1 88.1698 97 90.9998 97C91.9724 97.0472 92.9289 96.7378 93.6898 96.13C95.9998 94.12 94.7498 90 93.5698 87.07ZM6.06976 23.25C6.12564 23.0263 6.2262 22.8161 6.36541 22.6323C6.50461 22.4484 6.67957 22.2946 6.87976 22.18C7.07828 22.063 7.2982 21.9867 7.52659 21.9558C7.75499 21.9249 7.98726 21.9399 8.20976 22L17.9998 24.58C18.3313 24.6868 18.6895 24.6757 19.0138 24.5486C19.338 24.4215 19.6084 24.1862 19.779 23.8826C19.9497 23.5789 20.0101 23.2257 19.9501 22.8826C19.8901 22.5395 19.7133 22.2277 19.4498 22C19.4256 21.9529 19.3954 21.9092 19.3598 21.87L11.8898 14.44C11.7244 14.2767 11.5933 14.082 11.504 13.8674C11.4147 13.6528 11.3691 13.4225 11.3698 13.19C11.3685 12.7244 11.5477 12.2764 11.8698 11.94C12.0317 11.7728 12.2262 11.6405 12.4411 11.5511C12.656 11.4617 12.887 11.4171 13.1198 11.42C13.3506 11.4063 13.5816 11.444 13.796 11.5305C14.0105 11.6169 14.203 11.75 14.3598 11.92L21.9098 19.43C22.0492 19.5706 22.2151 19.6822 22.3979 19.7584C22.5807 19.8345 22.7767 19.8737 22.9748 19.8737C23.1728 19.8737 23.3688 19.8345 23.5516 19.7584C23.7344 19.6822 23.9003 19.5706 24.0398 19.43C24.2709 19.1919 24.4153 18.883 24.4497 18.5529C24.4842 18.2229 24.4067 17.8908 24.2298 17.61C24.2328 17.4914 24.2159 17.3731 24.1798 17.26L21.7298 8.26005C21.665 8.03693 21.6467 7.80291 21.676 7.57244C21.7052 7.34197 21.7814 7.11994 21.8998 6.92005C22.0165 6.71372 22.1743 6.53358 22.3636 6.3908C22.5528 6.24802 22.7693 6.14565 22.9998 6.09005C23.2213 6.02615 23.4536 6.00827 23.6823 6.0375C23.9111 6.06674 24.1314 6.14248 24.3298 6.26005C24.5319 6.37229 24.7095 6.52393 24.8521 6.706C24.9947 6.88806 25.0993 7.09686 25.1598 7.32005L30.9098 28.41L27.7998 30.8L7.31976 25.41C7.09553 25.3508 6.88521 25.2479 6.70089 25.1072C6.51657 24.9664 6.36189 24.7906 6.24573 24.5899C6.12957 24.3892 6.05422 24.1675 6.02402 23.9375C5.99382 23.7076 6.00937 23.474 6.06976 23.25ZM27.5098 35.0601C27.4837 35.0293 27.4694 34.9903 27.4694 34.95C27.4694 34.9098 27.4837 34.8708 27.5098 34.84L34.8798 29.08C34.9089 29.0701 34.9406 29.0701 34.9698 29.08C34.9946 29.0793 35.0193 29.0843 35.0418 29.0947C35.0644 29.1051 35.0842 29.1206 35.0998 29.14L37.3598 32C37.3858 32.0308 37.4001 32.0698 37.4001 32.11C37.4001 32.1503 37.3858 32.1893 37.3598 32.22L37.1498 32.38C36.1466 33.0367 35.1999 33.7759 34.3198 34.59L33.7798 35.0201C33.5598 35.1701 33.2798 35.39 32.9498 35.66L29.9998 38C29.969 38.0261 29.9301 38.0404 29.8898 38.0404C29.8495 38.0404 29.8105 38.0261 29.7798 38L27.5098 35.0601ZM91.7398 93.82C91.0298 94.43 87.8598 93.45 85.0898 91.76C77.6098 87.21 68.8198 81.19 59.5898 74.58L63.7398 70.81C64.035 70.5405 64.2112 70.165 64.23 69.7657C64.2487 69.3664 64.1084 68.976 63.8398 68.68C63.7086 68.5323 63.5494 68.4122 63.3714 68.3266C63.1933 68.2409 63.0001 68.1916 62.8028 68.1813C62.6055 68.1711 62.4082 68.2002 62.2222 68.2669C62.0363 68.3337 61.8655 68.4367 61.7198 68.57L57.0798 72.78C52.2598 69.3 47.3398 65.6901 42.4398 62.0601L46.2898 58C46.5635 57.7092 46.7108 57.3218 46.6996 56.9227C46.6883 56.5235 46.5194 56.145 46.2298 55.87C46.087 55.7321 45.9182 55.624 45.7332 55.5522C45.5481 55.4804 45.3506 55.4463 45.1521 55.4518C44.9537 55.4574 44.7584 55.5026 44.5777 55.5847C44.397 55.6669 44.2345 55.7843 44.0998 55.93L39.9998 60.25L38.7898 59.3601C32.9098 55.0001 29.9998 50.64 30.1198 46.44C30.2398 42.24 33.3298 39.2701 34.9098 37.9701L35.5198 37.48L35.8198 37.28C35.8841 37.2245 35.9442 37.1644 35.9998 37.1L36.1798 36.94L38.7598 34.94C40.7948 33.5194 43.2534 32.8351 45.7298 33C51.7298 33.53 56.0698 39.36 56.1698 39.5C56.2698 39.64 59.5498 43.5 64.0598 49.25L59.4698 54C59.1876 54.2847 59.0293 54.6693 59.0293 55.07C59.0293 55.4708 59.1876 55.8554 59.4698 56.14C59.6083 56.2803 59.7734 56.3917 59.9554 56.4677C60.1373 56.5438 60.3326 56.5829 60.5298 56.5829C60.727 56.5829 60.9222 56.5438 61.1042 56.4677C61.2861 56.3917 61.4512 56.2803 61.5898 56.14L65.9998 51.66C70.2998 57.2 75.4598 63.94 79.9998 70.4L76.0698 73.2C75.8048 73.3883 75.6076 73.6569 75.5076 73.9662C75.4075 74.2754 75.4099 74.6086 75.5143 74.9164C75.6188 75.2242 75.8198 75.49 76.0874 75.6744C76.355 75.8588 76.675 75.952 76.9998 75.94C77.312 75.9408 77.6166 75.8428 77.8698 75.66L81.7898 72.88C85.8898 78.88 89.2898 84.35 90.7898 88.2C92.2898 92.05 92.0698 93.54 91.7398 93.82Z" fill="url(#paint0_linear_54236_35307)"/>
<defs>
<linearGradient id="paint0_linear_54236_35307" x1="3.03369" y1="50.0016" x2="94.9859" y2="50.0016" gradientUnits="userSpaceOnUse">
<stop stop-color="#275E44"/>
<stop offset="0.0666667" stop-color="#275F45"/>
<stop offset="0.133333" stop-color="#296146"/>
<stop offset="0.2" stop-color="#2B654A"/>
<stop offset="0.266667" stop-color="#2D6B4E"/>
<stop offset="0.333333" stop-color="#317354"/>
<stop offset="0.4" stop-color="#357C5B"/>
<stop offset="0.466667" stop-color="#3A8562"/>
<stop offset="0.533333" stop-color="#3F906A"/>
<stop offset="0.6" stop-color="#449971"/>
<stop offset="0.666667" stop-color="#48A278"/>
<stop offset="0.733333" stop-color="#4CAA7E"/>
<stop offset="0.8" stop-color="#4EB082"/>
<stop offset="0.866667" stop-color="#50B486"/>
<stop offset="0.933333" stop-color="#52B687"/>
<stop offset="1" stop-color="#52B788"/>
</linearGradient>
</defs>
</svg>
